<?xml version="1.0" standalone="no"?>
<!DOCTYPE svg PUBLIC "-//W3C//DTD SVG 20010904//EN"
 "http://www.w3.org/TR/2001/REC-SVG-20010904/DTD/svg10.dtd">
<svg version="1.0" xmlns="http://www.w3.org/2000/svg"
 width="700.000000pt" height="700.000000pt" viewBox="0 0 700.000000 700.000000"
 preserveAspectRatio="xMidYMid meet">
<metadata>
Created by potrace 1.11, written by Peter Selinger 2001-2013
</metadata>
<g transform="translate(0.000000,700.000000) scale(0.100000,-0.100000)"
fill="#000000" stroke="none">
<path d="M992 6820 c-98 -252 -133 -490 -108 -735 39 -373 228 -712 547 -981
l76 -65 -29 -80 c-15 -45 -40 -127 -54 -182 -15 -56 -28 -103 -29 -105 -2 -2
-112 53 -246 121 -888 453 -1137 576 -1142 563 -3 -7 -4 -98 -2 -202 2 -186
13 -294 40 -386 8 -27 12 -48 10 -48 -8 0 57 -175 89 -240 95 -192 221 -322
396 -410 155 -78 312 -109 532 -104 84 1 162 5 173 7 11 2 45 8 75 11 l56 7
12 -93 c7 -51 17 -118 22 -148 5 -30 13 -89 20 -130 6 -41 13 -86 15 -100 2
-14 13 -86 25 -160 27 -180 38 -247 46 -295 3 -22 8 -51 10 -65 2 -14 20 -131
39 -260 20 -129 38 -251 41 -270 3 -19 7 -46 9 -60 2 -14 13 -83 24 -155 37
-239 51 -309 82 -419 59 -210 164 -420 302 -604 89 -119 255 -285 364 -363
l83 -60 0 -89 c0 -269 190 -500 455 -554 93 -19 1091 -16 1170 4 171 42 324
174 393 336 31 74 35 99 36 206 1 54 3 98 6 98 8 0 148 108 194 150 167 151
289 305 398 500 113 203 188 443 223 710 3 25 8 56 10 70 6 34 13 77 20 125 3
22 10 65 15 95 6 30 12 71 14 90 3 19 11 78 20 130 8 52 18 118 22 145 3 28 8
59 10 70 4 20 22 132 29 190 3 17 7 41 9 55 3 14 8 43 11 65 3 23 7 50 9 62 3
12 7 43 11 70 7 46 10 67 19 123 2 14 7 47 11 73 4 27 8 59 11 70 2 12 6 40 9
62 3 22 7 51 10 65 3 14 13 78 22 143 10 64 22 117 28 117 5 -1 57 -7 115 -14
123 -16 337 -14 430 3 322 60 538 222 679 509 57 115 90 227 126 432 9 47 15
376 8 417 l-5 33 -467 -237 c-256 -130 -567 -287 -690 -349 -123 -63 -227
-111 -232 -108 -5 3 -9 15 -9 27 -1 31 -35 156 -69 253 l-29 82 76 65 c448
379 630 874 526 1429 -15 81 -78 285 -93 301 -4 4 -15 -21 -25 -55 -23 -82
-87 -243 -138 -343 -160 -316 -422 -589 -693 -722 l-53 -26 -94 92 c-284 280
-644 476 -1043 566 -153 34 -276 44 -495 41 -243 -4 -363 -21 -565 -80 -340
-99 -648 -282 -906 -537 l-82 -82 -56 28 c-30 15 -89 50 -131 77 -313 209
-551 540 -685 953 -30 90 -34 97 -43 75z"/>
</g>
</svg>
