<?xml version="1.0" encoding="UTF-8" standalone="no"?>
<!-- Generator: Adobe Illustrator 19.0.0, SVG Export Plug-In . SVG Version: 6.00 Build 0)  -->

<svg
   xmlns:dc="http://purl.org/dc/elements/1.1/"
   xmlns:cc="http://creativecommons.org/ns#"
   xmlns:rdf="http://www.w3.org/1999/02/22-rdf-syntax-ns#"
   xmlns:svg="http://www.w3.org/2000/svg"
   xmlns="http://www.w3.org/2000/svg"
   xmlns:sodipodi="http://sodipodi.sourceforge.net/DTD/sodipodi-0.dtd"
   xmlns:inkscape="http://www.inkscape.org/namespaces/inkscape"
   version="1.1"
   id="Capa_1"
   x="0px"
   y="0px"
   viewBox="0 0 512 512"
   style="enable-background:new 0 0 512 512;"
   xml:space="preserve"
   inkscape:version="0.91 r13725"
   sodipodi:docname="081-moon-sad.svg"><metadata
     id="metadata77"><rdf:RDF><cc:Work
         rdf:about=""><dc:format>image/svg+xml</dc:format><dc:type
           rdf:resource="http://purl.org/dc/dcmitype/StillImage" /><dc:title></dc:title></cc:Work></rdf:RDF></metadata><defs
     id="defs75" /><sodipodi:namedview
     pagecolor="#ffffff"
     bordercolor="#666666"
     borderopacity="1"
     objecttolerance="10"
     gridtolerance="10"
     guidetolerance="10"
     inkscape:pageopacity="0"
     inkscape:pageshadow="2"
     inkscape:window-width="1920"
     inkscape:window-height="1017"
     id="namedview73"
     showgrid="false"
     inkscape:zoom="1.3037281"
     inkscape:cx="253.61063"
     inkscape:cy="243.9137"
     inkscape:window-x="0"
     inkscape:window-y="30"
     inkscape:window-maximized="1"
     inkscape:current-layer="Capa_1" /><circle
     style="fill:#FFDC64;"
     cx="256"
     cy="256"
     r="256"
     id="circle3" /><path
     style="fill:#FFC850;"
     d="M339.957,428.043c-141.385,0-256-114.615-256-256c0-49.18,13.896-95.102,37.935-134.107  C48.766,83.005,0,163.795,0,256c0,141.385,114.615,256,256,256c92.205,0,172.996-48.766,218.065-121.893  C435.059,414.147,389.138,428.043,339.957,428.043z"
     id="path5" /><circle
     style="fill:#FFF082;"
     cx="330.32"
     cy="107.36"
     r="16.516"
     id="circle7" /><circle
     style="fill:#FFDC64;"
     cx="107.36"
     cy="322.06"
     r="16.516"
     id="circle9" /><g
     id="g11"><path
       style="fill:#FFF082;"
       d="M222.968,107.355h-8.258v-8.258c0-4.565-3.698-8.258-8.258-8.258s-8.258,3.694-8.258,8.258v8.258   h-8.258c-4.56,0-8.258,3.694-8.258,8.258c0,4.565,3.698,8.258,8.258,8.258h8.258v8.258c0,4.565,3.698,8.258,8.258,8.258   s8.258-3.694,8.258-8.258v-8.258h8.258c4.56,0,8.258-3.694,8.258-8.258C231.226,111.048,227.528,107.355,222.968,107.355z"
       id="path13" /><path
       style="fill:#FFF082;"
       d="M424.581,313.806l2.419-2.419c3.226-3.226,3.226-8.452,0-11.677c-3.226-3.226-8.452-3.226-11.677,0   l-2.419,2.419l-2.419-2.419c-3.226-3.226-8.452-3.226-11.677,0c-3.226,3.226-3.226,8.452,0,11.677l2.419,2.419l-2.419,2.419   c-3.226,3.226-3.226,8.452,0,11.677c1.613,1.613,3.726,2.419,5.839,2.419c2.113,0,4.226-0.806,5.839-2.419l2.419-2.419l2.419,2.419   c1.613,1.613,3.726,2.419,5.839,2.419c2.113,0,4.226-0.806,5.839-2.419c3.226-3.226,3.226-8.452,0-11.677L424.581,313.806z"
       id="path15" /></g><g
     id="g17"><path
       style="fill:#FFFFFF;"
       d="M161.032,264.258L161.032,264.258c-20.524,0-37.161-16.638-37.161-37.161v-8.258   c0-20.524,16.638-37.161,37.161-37.161l0,0c20.524,0,37.161,16.638,37.161,37.161v8.258   C198.194,247.62,181.556,264.258,161.032,264.258z"
       id="path19" /><path
       style="fill:#FFFFFF;"
       d="M350.968,264.258L350.968,264.258c-20.524,0-37.161-16.638-37.161-37.161v-8.258   c0-20.524,16.638-37.161,37.161-37.161l0,0c20.524,0,37.161,16.638,37.161,37.161v8.258   C388.129,247.62,371.491,264.258,350.968,264.258z"
       id="path21" /></g><g
     id="g23"><path
       style="fill:#EBAF4B;"
       d="M256,338.581c-18.524,0-33.032-10.879-33.032-24.774c0-4.565,3.698-8.258,8.258-8.258   s8.258,3.694,8.258,8.258c0,3.371,6.435,8.258,16.516,8.258c10.081,0,16.516-4.887,16.516-8.258c0-4.565,3.698-8.258,8.258-8.258   s8.258,3.694,8.258,8.258C289.032,327.702,274.524,338.581,256,338.581z"
       id="path25" /><path
       style="fill:#EBAF4B;"
       d="M256,429.419c-8.802,0-17.496-0.556-25.843-1.653c-4.524-0.589-7.71-4.734-7.117-9.258   c0.597-4.532,4.766-7.734,9.262-7.113c15.282,2,32.113,2,47.395,0c4.48-0.621,8.665,2.581,9.262,7.113   c0.593,4.524-2.593,8.669-7.117,9.258C273.496,428.863,264.802,429.419,256,429.419z"
       id="path27" /></g><path
     style="fill:#dc9b41"
     d="m 157.77395,385.30209 8.258,16.516 c 2.04,4.081 6.996,5.734 11.081,3.694 4.081,-2.04 5.734,-7 3.694,-11.081 l -0.025,-0.049 c 13.363,-12.61 43.111,-21.031 75.218,-21.031 32.107,0 61.855,8.421 75.218,21.031 l -0.025,0.049 c -2.04,4.081 -0.387,9.04 3.694,11.081 4.093,2.04 9.044,0.387 11.081,-3.694 l 8.258,-16.516 c 2.04,-4.081 0.387,-9.04 -3.694,-11.081 -1.185,-0.589 -2.448,-0.871 -3.685,-0.871 -3.032,0 -5.948,1.669 -7.395,4.565 l -0.613,1.227 c -17.619,-13.862 -48.33,-22.307 -82.838,-22.307 -34.508,0 -65.219,8.446 -82.838,22.307 l -0.613,-1.227 c -1.448,-2.895 -4.363,-4.565 -7.395,-4.565 -1.238,0 -2.5,0.282 -3.685,0.871 -4.083,2.04 -5.736,7 -3.696,11.081 z"
     id="path29"
     inkscape:connector-curvature="0" /><g
     id="g31"><path
       style="fill:#4B3F4E;"
       d="M144.516,247.742L144.516,247.742c-11.402,0-20.645-9.243-20.645-20.645v-8.258   c0-11.402,9.243-20.645,20.645-20.645l0,0c11.402,0,20.645,9.243,20.645,20.645v8.258   C165.161,238.499,155.918,247.742,144.516,247.742z"
       id="path33" /><path
       style="fill:#4B3F4E;"
       d="M334.452,247.742L334.452,247.742c-11.402,0-20.645-9.243-20.645-20.645v-8.258   c0-11.402,9.243-20.645,20.645-20.645l0,0c11.402,0,20.645,9.243,20.645,20.645v8.258   C355.097,238.499,345.854,247.742,334.452,247.742z"
       id="path35" /></g><g
     id="g37"><circle
       style="fill:#FFFFFF;"
       cx="148.65"
       cy="214.71"
       r="8.258"
       id="circle39" /><circle
       style="fill:#FFFFFF;"
       cx="338.58"
       cy="214.71"
       r="8.258"
       id="circle41" /></g><g
     id="g43" /><g
     id="g45" /><g
     id="g47" /><g
     id="g49" /><g
     id="g51" /><g
     id="g53" /><g
     id="g55" /><g
     id="g57" /><g
     id="g59" /><g
     id="g61" /><g
     id="g63" /><g
     id="g65" /><g
     id="g67" /><g
     id="g69" /><g
     id="g71" /><g
     id="g8549"
     transform="matrix(1.1753439,-0.16795647,0.16795647,1.1753439,-100.64001,9.3056673)"><path
       id="path8328"
       d="m 366.12936,338.3739 c 9.13384,-0.57994 16.19176,-8.66897 15.56963,-17.80044 -0.86909,-12.75248 -13.43216,-25.57912 -18.23133,-38.93547 -0.14539,-0.40459 -0.50742,-0.58871 -0.85685,-0.56697 -0.34979,0.0206 -0.68698,0.24695 -0.78232,0.66615 -3.1536,13.83766 -14.07822,28.08575 -13.40293,40.8501 0.48349,9.13987 8.46567,16.31853 17.60279,15.79265"
       style="fill:#b2edff"
       inkscape:connector-curvature="0" /><path
       id="path8330"
       d="m 374.90391,333.3022 -0.10101,0.006 c -9.13713,0.52569 -17.11912,-6.65297 -17.6028,-15.79283 -0.48496,-9.16672 5.00594,-19.09914 9.31138,-29.09494 -1.1723,-2.24725 -2.22624,-4.50673 -3.044,-6.78247 -0.1454,-0.40459 -0.50724,-0.58871 -0.85685,-0.56697 -0.34979,0.0205 -0.6868,0.24695 -0.78251,0.66615 -3.15323,13.83766 -14.07785,28.08575 -13.40256,40.8501 0.48368,9.13987 8.46567,16.31853 17.60279,15.79265 l 0.10101,-0.006 c 4.43659,-0.28166 8.37361,-2.34424 11.18856,-5.42806 -0.78762,0.17005 -1.58858,0.30394 -2.41401,0.35636 z"
       style="fill:#59d8ff"
       inkscape:connector-curvature="0" /></g><g
     id="g8332"
     transform="matrix(0.18265846,0,0,0.18265846,348.3956,267.13107)" /><g
     id="g8334"
     transform="matrix(0.18265846,0,0,0.18265846,348.3956,267.13107)" /><g
     id="g8336"
     transform="matrix(0.18265846,0,0,0.18265846,348.3956,267.13107)" /><g
     id="g8338"
     transform="matrix(0.18265846,0,0,0.18265846,348.3956,267.13107)" /><g
     id="g8340"
     transform="matrix(0.18265846,0,0,0.18265846,348.3956,267.13107)" /><g
     id="g8342"
     transform="matrix(0.18265846,0,0,0.18265846,348.3956,267.13107)" /><g
     id="g8344"
     transform="matrix(0.18265846,0,0,0.18265846,348.3956,267.13107)" /><g
     id="g8346"
     transform="matrix(0.18265846,0,0,0.18265846,348.3956,267.13107)" /><g
     id="g8348"
     transform="matrix(0.18265846,0,0,0.18265846,348.3956,267.13107)" /><g
     id="g8350"
     transform="matrix(0.18265846,0,0,0.18265846,348.3956,267.13107)" /><g
     id="g8352"
     transform="matrix(0.18265846,0,0,0.18265846,348.3956,267.13107)" /><g
     id="g8354"
     transform="matrix(0.18265846,0,0,0.18265846,348.3956,267.13107)" /><g
     id="g8356"
     transform="matrix(0.18265846,0,0,0.18265846,348.3956,267.13107)" /><g
     id="g8358"
     transform="matrix(0.18265846,0,0,0.18265846,348.3956,267.13107)" /><g
     id="g8360"
     transform="matrix(0.18265846,0,0,0.18265846,348.3956,267.13107)" /></svg>