<?xml version="1.0" encoding="iso-8859-1"?>
<!-- Generator: Adobe Illustrator 18.0.0, SVG Export Plug-In . SVG Version: 6.00 Build 0)  -->
<!DOCTYPE svg PUBLIC "-//W3C//DTD SVG 1.1//EN" "http://www.w3.org/Graphics/SVG/1.1/DTD/svg11.dtd">
<svg version="1.1" id="Capa_1" xmlns="http://www.w3.org/2000/svg" xmlns:xlink="http://www.w3.org/1999/xlink" x="0px" y="0px"
	 viewBox="0 0 425.099 425.099" style="enable-background:new 0 0 425.099 425.099;" xml:space="preserve">
<g>
	<path d="M307.886,83.227c22.987,0,41.613-18.628,41.613-41.613C349.498,18.627,330.873,0,307.886,0
		c-22.988,0-41.614,18.627-41.614,41.613C266.272,64.599,284.898,83.227,307.886,83.227z"/>
	<path d="M414.013,245.394l-59.341-144.245c-2.544-6.184-8.518-9.913-14.815-9.909c-0.049-0.002-0.097-0.007-0.147-0.007h-63.655
		c-0.071,0-0.14,0.007-0.21,0.011c-6.327-0.036-12.341,3.696-14.896,9.906l-48.244,117.27L164.483,101.2
		c-1.639-3.983-6.165-9.967-15.394-9.967c0,0-47.741,0-63.655,0c-0.058,0-0.115,0.007-0.172,0.008
		c-6.303,0.081-12.287,3.719-14.834,9.908L11.086,245.394c-3.362,8.172,0.538,17.522,8.709,20.884
		c1.992,0.819,4.053,1.208,6.082,1.208c6.292,0,12.26-3.737,14.803-9.917l26.135-63.528v11.048l0,0l-29.849,93.252
		c-5.02,15.683,6.68,31.713,23.146,31.713h6.702v73.99c0,11.883,9.846,21.467,21.824,21.041
		c11.409-0.406,20.286-10.129,20.286-21.546v-73.485h16.671v73.99c0,11.883,9.844,21.467,21.823,21.041
		c11.41-0.406,20.288-10.13,20.288-21.547v-73.484h6.702c16.467,0,28.167-16.03,23.146-31.713l-29.849-93.252v-11.941l26.523,64.472
		c2.543,6.18,8.51,9.917,14.803,9.917c1.257,0,2.527-0.169,3.786-0.478c1.191,0.276,2.391,0.427,3.581,0.427
		c6.292,0,12.26-3.737,14.803-9.917l26.235-63.771v210.247c0,11.883,9.846,21.467,21.824,21.041
		c11.409-0.406,20.286-10.129,20.286-21.546V289.912c0-4.44,3.351-8.316,7.781-8.603c4.854-0.314,8.889,3.53,8.889,8.317v114.418
		c0,11.883,9.845,21.467,21.823,21.041c11.41-0.406,20.288-10.13,20.288-21.547V194.148l26.091,63.421
		c2.542,6.18,8.51,9.917,14.803,9.917c2.028,0,4.09-0.388,6.082-1.207C413.475,262.917,417.375,253.566,414.013,245.394z"/>
	<path d="M117.264,83.227c22.986,0,41.612-18.628,41.612-41.613C158.876,18.627,140.25,0,117.264,0
		C94.276,0,75.65,18.627,75.65,41.613C75.65,64.599,94.276,83.227,117.264,83.227z"/>
</g>
<g>
</g>
<g>
</g>
<g>
</g>
<g>
</g>
<g>
</g>
<g>
</g>
<g>
</g>
<g>
</g>
<g>
</g>
<g>
</g>
<g>
</g>
<g>
</g>
<g>
</g>
<g>
</g>
<g>
</g>
</svg>
