<svg viewBox="0 0 512 512.00025" xmlns="http://www.w3.org/2000/svg"><path d="m51.210938 503.214844 116.988281-116.984375-42.429688-42.425781-116.980469 116.984374c-11.71875 11.714844-11.71875 30.707032 0 42.425782 11.714844 11.714844 30.707032 11.714844 42.421876 0zm0 0"/><path d="m146.984375 322.589844 42.425781 42.425781c29.238282 29.242187 76.824219 29.242187 106.066406 0l10.605469-10.605469-148.492187-148.492187-10.605469 10.605469c-29.242187 29.242187-29.242187 76.828124 0 106.066406zm0 0"/><path d="m399.667969 253.925781c-7.792969 3.132813-16.519531-.792969-19.492188-8.347656-3.089843-7.6875.652344-16.417969 8.347657-19.492187 32.367187-12.980469 52.214843-15.660157 101.4375-28.566407-13.976563-35.273437-34.226563-67.292969-59.339844-94.925781l-73.699219 73.699219c-5.863281 5.863281-15.351563 5.863281-21.214844 0-5.859375-5.859375-5.859375-15.351563 0-21.214844l73.699219-73.699219c-27.632812-25.113281-59.648438-45.359375-94.925781-59.339844-12.808594 48.859376-15.5625 69.011719-28.5625 101.4375-3.078125 7.699219-11.808594 11.4375-19.492188 8.351563-7.554687-2.972656-11.484375-11.695313-8.351562-19.496094 11.984375-29.949219 14.296875-47.867187 27.910156-100.007812-27.347656-7.863281-56.125-12.324219-85.964844-12.324219-4.828125 0-9.355469 2.308594-12.171875 6.226562-2.820312 3.914063-3.585937 8.949219-2.0625 13.515626.367188 1.105468 34.0625 104.519531-7.917968 164.027343l150.371093 150.371094c59.390625-41.828125 162.914063-8.292969 164.03125-7.914063 4.578125 1.511719 9.601563.734376 13.515625-2.082031 3.894532-2.816406 6.226563-7.34375 6.214844-12.160156 0-29.84375-4.460938-58.621094-12.324219-85.96875-51.046875 13.332031-69.859375 15.847656-100.007812 27.910156zm0 0"/></svg>