<?xml version="1.0" encoding="UTF-8" standalone="no"?>
<svg
   xmlns:dc="http://purl.org/dc/elements/1.1/"
   xmlns:cc="http://creativecommons.org/ns#"
   xmlns:rdf="http://www.w3.org/1999/02/22-rdf-syntax-ns#"
   xmlns:svg="http://www.w3.org/2000/svg"
   xmlns="http://www.w3.org/2000/svg"
   xmlns:sodipodi="http://sodipodi.sourceforge.net/DTD/sodipodi-0.dtd"
   xmlns:inkscape="http://www.inkscape.org/namespaces/inkscape"
   viewBox="0 0 837.07999 377.80679"
   height="377.80679"
   width="837.07996"
   xml:space="preserve"
   version="1.1"
   id="svg2"
   inkscape:version="0.91 r13725"
   sodipodi:docname="models.svg"
   inkscape:export-filename="/home/thejoeejoee/projects/ZIS-IIS-VUT-BIT-2017-2018/doc/models.png"
   inkscape:export-xdpi="137"
   inkscape:export-ydpi="137"><sodipodi:namedview
     pagecolor="#ffffff"
     bordercolor="#666666"
     borderopacity="1"
     objecttolerance="10"
     gridtolerance="10"
     guidetolerance="10"
     inkscape:pageopacity="0"
     inkscape:pageshadow="2"
     inkscape:window-width="1920"
     inkscape:window-height="1017"
     id="namedview165"
     showgrid="false"
     fit-margin-top="0"
     fit-margin-left="0"
     fit-margin-right="0"
     fit-margin-bottom="0"
     inkscape:zoom="1.0227881"
     inkscape:cx="176.44661"
     inkscape:cy="179.02497"
     inkscape:window-x="0"
     inkscape:window-y="30"
     inkscape:window-maximized="1"
     inkscape:current-layer="svg2" /><metadata
     id="metadata8"><rdf:RDF><cc:Work
         rdf:about=""><dc:format>image/svg+xml</dc:format><dc:type
           rdf:resource="http://purl.org/dc/dcmitype/StillImage" /><dc:title /></cc:Work></rdf:RDF></metadata><defs
     id="defs6" /><rect
     style="fill:#ffffff;fill-opacity:1;fill-rule:nonzero;stroke:none;stroke-width:120.71399689;stroke-linecap:butt;stroke-linejoin:miter;stroke-miterlimit:3.9000001;stroke-dasharray:60.35699844, 60.35699844;stroke-dashoffset:0;stroke-opacity:1"
     id="rect8225"
     width="1065.7145"
     height="603.25305"
     x="-159.3683"
     y="-123.27454" /><text
     id="text18"
     style="font-variant:normal;font-weight:bold;font-size:15px;font-family:'Nimbus Sans L';-inkscape-font-specification:NimbusSanL-Bold;writing-mode:lr-tb;fill:#000000;fill-opacity:1;fill-rule:nonzero;stroke:none"
     x="349.58804"
     y="10.935"><tspan
       id="tspan20"
       y="10.935"
       x="349.58804 357.08804 360.83804 369.28305 377.71304 385.21301 388.96301 397.40802 406.78302 412.40802 420.83801">ziscz.core </tspan></text>
<path
     inkscape:connector-curvature="0"
     id="path22"
     style="fill:#eee8aa;fill-opacity:1;fill-rule:nonzero;stroke:none"
     d="m 579.37831,246.5568 90,0 0,30 -90,0 0,-30 z" /><path
     inkscape:connector-curvature="0"
     id="path24"
     style="fill:#a965d1;fill-opacity:1;fill-rule:nonzero;stroke:none"
     d="m 579.37831,246.5568 90,0 0,30 -90,0 0,-30 z" /><text
     id="text26"
     style="font-variant:normal;font-weight:bold;font-size:10.00030518px;font-family:'Nimbus Sans L';-inkscape-font-specification:NimbusSanL-Bold;writing-mode:lr-tb;fill:#ffffff;fill-opacity:1;fill-rule:nonzero;stroke:none"
     x="624.38379"
     y="258.30484"><tspan
       id="tspan28"
       y="258.30484"
       x="624.38379 631.88403 638.44421 641.25427 649.69458 655.3147">Animal</tspan><tspan
       id="tspan30"
       y="268.30484"
       x="584.3783">&lt;</tspan></text>
<text
     id="text32"
     style="font-variant:normal;font-size:10.00030518px;font-family:'Nimbus Sans L';-inkscape-font-specification:NimbusSanL-ReguItal;writing-mode:lr-tb;fill:#ffffff;fill-opacity:1;fill-rule:nonzero;stroke:none"
     x="590.62854"
     y="268.30484"><tspan
       id="tspan34"
       y="268.30484"
       x="590.62854 597.18866 602.81885 607.50903 613.12921 621.56946 627.18958 632.81976 638.43994">BaseModel</tspan></text>
<text
     id="text36"
     style="font-variant:normal;font-weight:bold;font-size:10.00030518px;font-family:'Nimbus Sans L';-inkscape-font-specification:NimbusSanL-Bold;writing-mode:lr-tb;fill:#ffffff;fill-opacity:1;fill-rule:nonzero;stroke:none"
     x="640.63007"
     y="268.30484"><tspan
       id="tspan38"
       y="268.30484"
       x="640.63007 646.26013">&gt; </tspan></text>
<path
     inkscape:connector-curvature="0"
     id="path40"
     style="fill:none;stroke:#000000;stroke-width:1.25;stroke-linecap:butt;stroke-linejoin:round;stroke-miterlimit:10;stroke-dasharray:none;stroke-opacity:1"
     d="m 689.86706,257.6018 c 7.295,0.7475 12.01125,2.065 12.01125,3.955 0,2.685 -9.54125,4.21875 -22.47125,4.595" /><path
     inkscape:connector-curvature="0"
     id="path42"
     style="fill:#000000;fill-opacity:1;fill-rule:nonzero;stroke:#000000;stroke-width:1.25;stroke-linecap:butt;stroke-linejoin:round;stroke-miterlimit:10;stroke-dasharray:none;stroke-opacity:1"
     d="m 689.39831,257.2693 c 0,6.665 -10,6.665 -10,0 0,-6.67 10,-6.67 10,0" /><text
     id="text44"
     style="font-variant:normal;font-size:10.00030518px;font-family:'Nimbus Sans L';-inkscape-font-specification:NimbusSanL-Regu;writing-mode:lr-tb;fill:#000000;fill-opacity:1;fill-rule:nonzero;stroke:none"
     x="701.8783"
     y="263.92984"><tspan
       id="tspan46"
       y="263.92984"
       x="701.8783 707.50848 713.1286 716.87878 722.50891 728.12903 730.93921 736.5694 739.37946 743.12952 748.7597 754.37988 756.25995 764.7002 770.32037 772.20044 777.82062 783.45081 789.07098 792.82104 798.45123 804.07141 806.88147 812.51172">parent1 (animal_parent1)</tspan></text>
<path
     inkscape:connector-curvature="0"
     id="path48"
     style="fill:none;stroke:#000000;stroke-width:1.25;stroke-linecap:butt;stroke-linejoin:round;stroke-miterlimit:10;stroke-dasharray:none;stroke-opacity:1"
     d="m 689.49081,253.2018 c 56.9675,-2.74375 127.3875,0.04 127.3875,8.355 0,8.81375 -79.12625,11.41125 -137.485,7.7975" /><path
     inkscape:connector-curvature="0"
     id="path50"
     style="fill:#000000;fill-opacity:1;fill-rule:nonzero;stroke:#000000;stroke-width:1.25;stroke-linecap:butt;stroke-linejoin:round;stroke-miterlimit:10;stroke-dasharray:none;stroke-opacity:1"
     d="m 689.38831,253.48555 c 0,6.665 -10,6.665 -10,0 0,-6.665 10,-6.665 10,0" /><path
     inkscape:connector-curvature="0"
     id="path66"
     style="fill:#eee8aa;fill-opacity:1;fill-rule:nonzero;stroke:none"
     d="m 535.62831,145.3068 100,0 0,30 -100,0 0,-30 z" /><path
     inkscape:connector-curvature="0"
     id="path68"
     style="fill:#a965d1;fill-opacity:1;fill-rule:nonzero;stroke:none"
     d="m 535.62831,145.3068 100,0 0,30 -100,0 0,-30 z" /><text
     id="text70"
     style="font-variant:normal;font-weight:bold;font-size:10.00030518px;font-family:'Nimbus Sans L';-inkscape-font-specification:NimbusSanL-Bold;writing-mode:lr-tb;fill:#ffffff;fill-opacity:1;fill-rule:nonzero;stroke:none"
     x="575.00879"
     y="157.05484"><tspan
       id="tspan72"
       y="157.05484"
       x="575.00879 582.50903 589.06921 591.87927 600.31958 605.9397 608.75989 615.32007 619.07013 624.69031">AnimalStay</tspan><tspan
       id="tspan74"
       y="167.05482"
       x="545.6283">&lt;</tspan></text>
<text
     id="text76"
     style="font-variant:normal;font-size:10.00030518px;font-family:'Nimbus Sans L';-inkscape-font-specification:NimbusSanL-ReguItal;writing-mode:lr-tb;fill:#ffffff;fill-opacity:1;fill-rule:nonzero;stroke:none"
     x="551.87848"
     y="167.05482"><tspan
       id="tspan78"
       y="167.05482"
       x="551.87848 558.43866 564.06885 568.75903 574.37915 582.81946 588.43958 594.06976 599.68994">BaseModel</tspan></text>
<text
     id="text80"
     style="font-variant:normal;font-weight:bold;font-size:10.00030518px;font-family:'Nimbus Sans L';-inkscape-font-specification:NimbusSanL-Bold;writing-mode:lr-tb;fill:#ffffff;fill-opacity:1;fill-rule:nonzero;stroke:none"
     x="601.88"
     y="167.05482"><tspan
       id="tspan82"
       y="167.05482"
       x="601.88 607.51013">&gt; </tspan></text>
<path
     inkscape:connector-curvature="0"
     id="path84"
     style="fill:none;stroke:#000000;stroke-width:1.25;stroke-linecap:butt;stroke-linejoin:round;stroke-miterlimit:10;stroke-dasharray:none;stroke-opacity:1"
     d="m 544.07581,190.05805 c -6.91875,8.17875 -10.26875,17.3675 -4.6975,26.49875 7.0025,11.475 18.08125,20.07375 29.95625,26.46" /><path
     inkscape:connector-curvature="0"
     id="path86"
     style="fill:#000000;fill-opacity:1;fill-rule:nonzero;stroke:#000000;stroke-width:1.25;stroke-linecap:butt;stroke-linejoin:round;stroke-miterlimit:10;stroke-dasharray:none;stroke-opacity:1"
     d="m 552.74706,186.39555 c 0,6.67 -10,6.67 -10,0 0,-6.665 10,-6.665 10,0" /><text
     id="text88"
     style="font-variant:normal;font-size:10.00030518px;font-family:'Nimbus Sans L';-inkscape-font-specification:NimbusSanL-Regu;writing-mode:lr-tb;fill:#000000;fill-opacity:1;fill-rule:nonzero;stroke:none"
     x="539.3783"
     y="213.30482"><tspan
       id="tspan90"
       y="213.30482"
       x="539.3783 545.00848 550.62866 552.50873 560.93896 566.56915 568.43921 571.25928 575.0094 580.62952 586.2597 588.12982 596.57007 602.2002 604.07031 609.70044 614.38062 617.20062 622.8208 627.51099 633.13123 638.76129 644.38147 646.26154 654.70178 660.32196 662.20203">animal (animal_stay_animal)</tspan></text>
<g
     id="g8707"
     transform="matrix(1.25,0,0,-1.25,-178.08262,556.67553)"><g
       id="g8695"><g
         id="g8609"
         transform="translate(-172.38575,160.52629)"><path
           inkscape:connector-curvature="0"
           d="m 857,232 76,0 0,-24 -76,0 0,24 z"
           style="fill:#eee8aa;fill-opacity:1;fill-rule:nonzero;stroke:none"
           id="path92" /><path
           inkscape:connector-curvature="0"
           d="m 857,232 76,0 0,-24 -76,0 0,24 z"
           style="fill:#a965d1;fill-opacity:1;fill-rule:nonzero;stroke:none"
           id="path94" /><text
           y="-222.60156"
           x="888.50439"
           transform="scale(1,-1)"
           style="font-variant:normal;font-weight:bold;font-size:8.00024414px;font-family:'Nimbus Sans L';-inkscape-font-specification:NimbusSanL-Bold;writing-mode:lr-tb;fill:#ffffff;fill-opacity:1;fill-rule:nonzero;stroke:none"
           id="text96"><tspan
             x="888.50439 893.75256 899.00073 903.50488 905.75293 911.0011 915.50525 920.75342 923.75348"
             y="-222.60156"
             id="tspan98">Enclosure</tspan><tspan
             x="863"
             y="-214.60156"
             id="tspan100">&lt;</tspan></text>
<text
           y="-214.60156"
           x="868.00012"
           transform="scale(1,-1)"
           style="font-variant:normal;font-size:8.00024414px;font-family:'Nimbus Sans L';-inkscape-font-specification:NimbusSanL-ReguItal;writing-mode:lr-tb;fill:#ffffff;fill-opacity:1;fill-rule:nonzero;stroke:none"
           id="text102"><tspan
             x="868.00012 873.24829 877.75244 881.50458 886.00067 892.75293 897.24902 901.75317 906.24933"
             y="-214.60156"
             id="tspan104">BaseModel</tspan></text>
<text
           y="-214.60156"
           x="908.00134"
           transform="scale(1,-1)"
           style="font-variant:normal;font-weight:bold;font-size:8.00024414px;font-family:'Nimbus Sans L';-inkscape-font-specification:NimbusSanL-Bold;writing-mode:lr-tb;fill:#ffffff;fill-opacity:1;fill-rule:nonzero;stroke:none"
           id="text106"><tspan
             x="908.00134 912.50549"
             y="-214.60156"
             id="tspan108">&gt; </tspan></text>
</g></g></g><path
     inkscape:connector-curvature="0"
     id="path110"
     style="fill:none;stroke:#000000;stroke-width:1.25;stroke-linecap:butt;stroke-linejoin:round;stroke-miterlimit:10;stroke-dasharray:none;stroke-opacity:1"
     d="m 571.58491,62.761398 c 74.66726,-2.84633 92.46567,7.80819 98.1793,5.64344" /><path
     inkscape:connector-curvature="0"
     id="path112"
     style="fill:#000000;fill-opacity:1;fill-rule:nonzero;stroke:#000000;stroke-width:1.25;stroke-linecap:butt;stroke-linejoin:round;stroke-miterlimit:10;stroke-dasharray:none;stroke-opacity:1"
     d="m 577.24557,65.123858 c 0,6.665 -10,6.665 -10,0 0,-6.67 10,-6.67 10,0" /><text
     id="text114"
     style="font-variant:normal;font-size:10.00030518px;font-family:'Nimbus Sans L';-inkscape-font-specification:NimbusSanL-Regu;writing-mode:lr-tb;fill:#000000;fill-opacity:1;fill-rule:nonzero;stroke:none"
     x="683.57532"
     y="166.85542"><tspan
       id="tspan116"
       y="166.85542"
       x="683.57532 689.20551 694.82562 699.51575 701.3858 707.01599 711.70618 717.32635 721.07642 726.70667 729.51672 733.26685 738.88696 744.51715 746.39722 754.82745 760.45764 762.32776 767.95789 772.64801 775.45807 781.07825 785.76843 791.39856 797.01874 802.64893 807.33905 809.20917 814.83936 819.51941 825.14966 828.89972 834.5199">enclosure (animal_stay_enclosure)</tspan></text>
<path
     inkscape:connector-curvature="0"
     id="path118"
     style="fill:#eee8aa;fill-opacity:1;fill-rule:nonzero;stroke:none"
     d="m 201.87831,246.5568 137.5,0 0,30 -137.5,0 0,-30 z" /><path
     inkscape:connector-curvature="0"
     id="path120"
     style="fill:#a965d1;fill-opacity:1;fill-rule:nonzero;stroke:none"
     d="m 201.87831,246.5568 137.5,0 0,30 -137.5,0 0,-30 z" /><text
     id="text122"
     style="font-variant:normal;font-weight:bold;font-size:10.00030518px;font-family:'Nimbus Sans L';-inkscape-font-specification:NimbusSanL-Bold;writing-mode:lr-tb;fill:#ffffff;fill-opacity:1;fill-rule:nonzero;stroke:none"
     x="241.25883"
     y="258.30484"><tspan
       id="tspan124"
       y="258.30484"
       x="241.25883 247.81902 253.43922 257.18933 262.81949 269.3797 275.93991 282.5101 288.13028 294.69049 300.32065 307.82086 314.38107 317.20117 325.63141 331.2616">PersonTypeAnimal</tspan><tspan
       id="tspan126"
       y="268.30484"
       x="230.62831">&lt;</tspan></text>
<text
     id="text128"
     style="font-variant:normal;font-size:10.00030518px;font-family:'Nimbus Sans L';-inkscape-font-specification:NimbusSanL-ReguItal;writing-mode:lr-tb;fill:#ffffff;fill-opacity:1;fill-rule:nonzero;stroke:none"
     x="236.87849"
     y="268.30484"><tspan
       id="tspan130"
       y="268.30484"
       x="236.87849 243.43871 249.06886 253.75899 259.37921 267.81946 273.43964 279.06979 284.68997">BaseModel</tspan></text>
<text
     id="text132"
     style="font-variant:normal;font-weight:bold;font-size:10.00030518px;font-family:'Nimbus Sans L';-inkscape-font-specification:NimbusSanL-Bold;writing-mode:lr-tb;fill:#ffffff;fill-opacity:1;fill-rule:nonzero;stroke:none"
     x="286.88004"
     y="268.30484"><tspan
       id="tspan134"
       y="268.30484"
       x="286.88004 292.51019">&gt; </tspan></text>
<path
     inkscape:connector-curvature="0"
     id="path136"
     style="fill:#eee8aa;fill-opacity:1;fill-rule:nonzero;stroke:none"
     d="m 148.12831,347.8068 90,0 0,30 -90,0 0,-30 z" /><path
     inkscape:connector-curvature="0"
     id="path138"
     style="fill:#a965d1;fill-opacity:1;fill-rule:nonzero;stroke:none"
     d="m 148.12831,347.8068 90,0 0,30 -90,0 0,-30 z" /><text
     id="text140"
     style="font-variant:normal;font-weight:bold;font-size:10.00030518px;font-family:'Nimbus Sans L';-inkscape-font-specification:NimbusSanL-Bold;writing-mode:lr-tb;fill:#ffffff;fill-opacity:1;fill-rule:nonzero;stroke:none"
     x="192.5088"
     y="359.55484"><tspan
       id="tspan142"
       y="359.55484"
       x="192.5088 199.06902 204.68919 208.43929 214.06947 220.62968">Person</tspan><tspan
       id="tspan144"
       y="369.55484"
       x="153.12831">&lt;</tspan></text>
<text
     id="text146"
     style="font-variant:normal;font-size:10.00030518px;font-family:'Nimbus Sans L';-inkscape-font-specification:NimbusSanL-ReguItal;writing-mode:lr-tb;fill:#ffffff;fill-opacity:1;fill-rule:nonzero;stroke:none"
     x="159.37849"
     y="369.55484"><tspan
       id="tspan148"
       y="369.55484"
       x="159.37849 165.93871 171.56886 176.25902 181.8792 190.31944 195.93962 201.56978 207.18996">BaseModel</tspan></text>
<text
     id="text150"
     style="font-variant:normal;font-weight:bold;font-size:10.00030518px;font-family:'Nimbus Sans L';-inkscape-font-specification:NimbusSanL-Bold;writing-mode:lr-tb;fill:#ffffff;fill-opacity:1;fill-rule:nonzero;stroke:none"
     x="209.38002"
     y="369.55484"><tspan
       id="tspan152"
       y="369.55484"
       x="209.38002 215.01021">&gt; </tspan></text>
<path
     inkscape:connector-curvature="0"
     id="path154"
     style="fill:none;stroke:#000000;stroke-width:1.25;stroke-linecap:butt;stroke-linejoin:round;stroke-miterlimit:10;stroke-dasharray:none;stroke-opacity:1"
     d="m 208.24581,290.5368 c -5.445,4.62375 -10.25375,9.93625 -13.8675,16.02 -5.855,9.85375 -6.49875,22.55375 -5.5225,33.26625" /><path
     inkscape:connector-curvature="0"
     id="path156"
     style="fill:#000000;fill-opacity:1;fill-rule:nonzero;stroke:#000000;stroke-width:1.25;stroke-linecap:butt;stroke-linejoin:round;stroke-miterlimit:10;stroke-dasharray:none;stroke-opacity:1"
     d="m 217.62581,287.24555 c 0,6.67 -10,6.67 -10,0 0,-6.665 10,-6.665 10,0" /><text
     id="text158"
     style="font-variant:normal;font-size:10.00030518px;font-family:'Nimbus Sans L';-inkscape-font-specification:NimbusSanL-Regu;writing-mode:lr-tb;fill:#000000;fill-opacity:1;fill-rule:nonzero;stroke:none"
     x="194.37831"
     y="314.55484"><tspan
       id="tspan160"
       y="314.55484"
       x="194.37831 200.00847 205.62865 209.37877 214.06892 219.68907 225.31923 228.12935 231.87947 237.50966 243.12981 246.8799 251.57005 257.20026 262.8204 268.45059 271.26065 275.95084 281.57098 287.20117 292.82132 298.45151 304.07166 305.95175 314.392 320.01215 321.89221 327.51242 333.14255 338.76273 342.51282 347.203 352.82315 358.45334">person (person_type_animal_person)</tspan></text>
<g
     id="g8638"
     transform="matrix(1.25,0,0,-1.25,-529.87295,731.97836)"><path
       inkscape:connector-curvature="0"
       d="m 887,313 92,0 0,-24 -92,0 0,24 z"
       style="fill:#eee8aa;fill-opacity:1;fill-rule:nonzero;stroke:none"
       id="path166" /><path
       inkscape:connector-curvature="0"
       d="m 887,313 92,0 0,-24 -92,0 0,24 z"
       style="fill:#a965d1;fill-opacity:1;fill-rule:nonzero;stroke:none"
       id="path168" /><text
       y="-303.60156"
       x="918.50439"
       transform="scale(1,-1)"
       style="font-variant:normal;font-weight:bold;font-size:8.00024414px;font-family:'Nimbus Sans L';-inkscape-font-specification:NimbusSanL-Bold;writing-mode:lr-tb;fill:#ffffff;fill-opacity:1;fill-rule:nonzero;stroke:none"
       id="text170"><tspan
         x="918.50439 924.50458 929.75275 932.00079 938.75305 943.24915 945.50525 951.50543 956.00153 961.24969 963.5058 968.75397"
         y="-303.60156"
         id="tspan172">AnimalRegion</tspan><tspan
         x="901"
         y="-295.60156"
         id="tspan174">&lt;</tspan></text>
<text
       y="-295.60156"
       x="906.00012"
       transform="scale(1,-1)"
       style="font-variant:normal;font-size:8.00024414px;font-family:'Nimbus Sans L';-inkscape-font-specification:NimbusSanL-ReguItal;writing-mode:lr-tb;fill:#ffffff;fill-opacity:1;fill-rule:nonzero;stroke:none"
       id="text176"><tspan
         x="906.00012 911.24829 915.75244 919.50458 924.00067 930.75293 935.24902 939.75317 944.24933"
         y="-295.60156"
         id="tspan178">BaseModel</tspan></text>
<text
       y="-295.60156"
       x="946.00134"
       transform="scale(1,-1)"
       style="font-variant:normal;font-weight:bold;font-size:8.00024414px;font-family:'Nimbus Sans L';-inkscape-font-specification:NimbusSanL-Bold;writing-mode:lr-tb;fill:#ffffff;fill-opacity:1;fill-rule:nonzero;stroke:none"
       id="text180"><tspan
         x="946.00134 950.50549"
         y="-295.60156"
         id="tspan182">&gt; </tspan></text>
</g><path
     inkscape:connector-curvature="0"
     id="path184"
     style="fill:none;stroke:#000000;stroke-width:1.25;stroke-linecap:butt;stroke-linejoin:round;stroke-miterlimit:10;stroke-dasharray:none;stroke-opacity:1"
     d="m 710.71463,353.68182 c 1.59036,-61.83805 -84.38108,-32.52452 -83.95603,-69.2344" /><path
     inkscape:connector-curvature="0"
     id="path186"
     style="fill:#000000;fill-opacity:1;fill-rule:nonzero;stroke:#000000;stroke-width:1.25;stroke-linecap:butt;stroke-linejoin:round;stroke-miterlimit:10;stroke-dasharray:none;stroke-opacity:1"
     d="m 714.30191,353.20299 c 0,6.67 -10,6.67 -10,0 0,-6.665 10,-6.665 10,0" /><text
     id="text188"
     style="font-variant:normal;font-size:10.00030518px;font-family:'Nimbus Sans L';-inkscape-font-specification:NimbusSanL-Regu;writing-mode:lr-tb;fill:#000000;fill-opacity:1;fill-rule:nonzero;stroke:none"
     x="657.0188"
     y="302.40512"><tspan
       id="tspan190"
       y="302.40512"
       x="657.0188 662.64905 668.26917 670.14923 678.57947 684.20972 686.07971 688.89978 692.6499 698.27002 703.90027 705.77039 714.21057 719.8407 721.71082 727.34094 731.09106 736.7113 742.34143 744.21155 749.84161 755.46179 761.09204 766.71222 772.34229 774.2124 782.65271 788.28284 790.15295">animal (animal_region_animal)</tspan></text>
<g
     id="g8673"
     transform="matrix(1.25,0,0,-1.25,-375.63218,441.46661)"><path
       inkscape:connector-curvature="0"
       d="m 648,313 94,0 0,-24 -94,0 0,24 z"
       style="fill:#eee8aa;fill-opacity:1;fill-rule:nonzero;stroke:none"
       id="path200" /><path
       inkscape:connector-curvature="0"
       d="m 648,313 94,0 0,-24 -94,0 0,24 z"
       style="fill:#a965d1;fill-opacity:1;fill-rule:nonzero;stroke:none"
       id="path202" /><text
       y="-303.60156"
       x="691.00439"
       transform="scale(1,-1)"
       style="font-variant:normal;font-weight:bold;font-size:8.00024414px;font-family:'Nimbus Sans L';-inkscape-font-specification:NimbusSanL-Bold;writing-mode:lr-tb;fill:#ffffff;fill-opacity:1;fill-rule:nonzero;stroke:none"
       id="text204"><tspan
         x="691.00439 697.00458 699.25269 703.74878 708.25293 713.5011 715.74915 721.00531"
         y="-303.60156"
         id="tspan206">Cleaning</tspan><tspan
         x="652.5"
         y="-295.60156"
         id="tspan208">&lt;</tspan></text>
<text
       y="-295.60156"
       x="657.50012"
       transform="scale(1,-1)"
       style="font-variant:normal;font-size:8.00024414px;font-family:'Nimbus Sans L';-inkscape-font-specification:NimbusSanL-ReguItal;writing-mode:lr-tb;fill:#ffffff;fill-opacity:1;fill-rule:nonzero;stroke:none"
       id="text210"><tspan
         x="657.50012 662.74829 667.25244 671.00458 675.50067 680.74884 684.50098 689.00513 693.50122 695.74933 702.50153 707.00568 711.50177 716.00592"
         y="-295.60156"
         id="tspan212">BaseEventModel</tspan></text>
<text
       y="-295.60156"
       x="718.50201"
       transform="scale(1,-1)"
       style="font-variant:normal;font-weight:bold;font-size:8.00024414px;font-family:'Nimbus Sans L';-inkscape-font-specification:NimbusSanL-Bold;writing-mode:lr-tb;fill:#ffffff;fill-opacity:1;fill-rule:nonzero;stroke:none"
       id="text214"><tspan
         x="718.50201 723.00616"
         y="-295.60156"
         id="tspan216">&gt; </tspan></text>
</g><g
     id="g8720"
     transform="matrix(1.25,0,0,-1.25,-163.25829,560.38161)"><path
       inkscape:connector-curvature="0"
       d="M 700.09378,363.30445 C 700.93207,343.02504 683.71153,322.58417 658.9895,321.4151"
       style="fill:none;stroke:#000000;stroke-width:1;stroke-linecap:butt;stroke-linejoin:round;stroke-miterlimit:10;stroke-dasharray:none;stroke-opacity:1"
       id="path218" /><path
       inkscape:connector-curvature="0"
       d="m 663.0004,320.63391 c 0,-5.336 -8,-5.336 -8,0 0,5.332 8,5.332 8,0"
       style="fill:#000000;fill-opacity:1;fill-rule:nonzero;stroke:#000000;stroke-width:1;stroke-linecap:butt;stroke-linejoin:round;stroke-miterlimit:10;stroke-dasharray:none;stroke-opacity:1"
       id="path220" /></g><text
     id="text222"
     style="font-variant:normal;font-size:10.00030518px;font-family:'Nimbus Sans L';-inkscape-font-specification:NimbusSanL-Regu;writing-mode:lr-tb;fill:#000000;fill-opacity:1;fill-rule:nonzero;stroke:none"
     x="588.21887"
     y="49.736271"><tspan
       id="tspan224"
       y="49.736271"
       x="588.21887 593.84906 599.46918 604.1593 606.02936 611.65955 616.34973 621.96991 625.71997 631.35022 634.16028 637.9104 642.60046 644.47052 650.10071 655.72095 661.35107 663.22113 668.85132 674.47144 680.10162 685.7218 691.35205 696.04211 697.91223 703.54236 708.23254 713.85272 717.60278 723.23297">enclosure (cleaning_enclosure)</tspan></text>
<path
     inkscape:connector-curvature="0"
     id="path226"
     style="fill:;fill-opacity:1;fill-rule:nonzero;stroke:none"
     d="m 381.87831,246.5568 155,0 0,30 -155,0 0,-30 z" /><path
     inkscape:connector-curvature="0"
     id="path228"
     style="fill:#a965d1;fill-opacity:1;fill-rule:nonzero;stroke:none"
     d="m 381.87831,246.5568 155,0 0,30 -155,0 0,-30 z" /><text
     id="text230"
     style="font-variant:normal;font-weight:bold;font-size:10.00030518px;font-family:'Nimbus Sans L';-inkscape-font-specification:NimbusSanL-Bold;writing-mode:lr-tb;fill:#ffffff;fill-opacity:1;fill-rule:nonzero;stroke:none"
     x="421.88385"
     y="258.30484"><tspan
       id="tspan232"
       y="258.30484"
       x="421.88385 428.44403 434.06421 437.81433 443.44446 450.0047 456.56488 463.13507 468.75525 475.31549 480.94562 487.5058 494.07605 499.69617 502.50629 509.07648 514.69666 521.25684 525.00696">PersonTypeEnclosure</tspan><tspan
       id="tspan234"
       y="268.30484"
       x="419.3783">&lt;</tspan></text>
<text
     id="text236"
     style="font-variant:normal;font-size:10.00030518px;font-family:'Nimbus Sans L';-inkscape-font-specification:NimbusSanL-ReguItal;writing-mode:lr-tb;fill:#ffffff;fill-opacity:1;fill-rule:nonzero;stroke:none"
     x="425.62848"
     y="268.30484"><tspan
       id="tspan238"
       y="268.30484"
       x="425.62848 432.18872 437.81885 442.50897 448.12921 456.56946 462.18964 467.81976 473.43994">BaseModel</tspan></text>
<text
     id="text240"
     style="font-variant:normal;font-weight:bold;font-size:10.00030518px;font-family:'Nimbus Sans L';-inkscape-font-specification:NimbusSanL-Bold;writing-mode:lr-tb;fill:#ffffff;fill-opacity:1;fill-rule:nonzero;stroke:none"
     x="475.63"
     y="268.30484"><tspan
       id="tspan242"
       y="268.30484"
       x="475.63 481.26019">&gt; </tspan></text>
<path
     inkscape:connector-curvature="0"
     id="path244"
     style="fill:none;stroke:#000000;stroke-width:1.25;stroke-linecap:butt;stroke-linejoin:round;stroke-miterlimit:10;stroke-dasharray:none;stroke-opacity:1"
     d="m 418.18706,289.5743 c -16.60125,9.9225 -36.25,20.60125 -55.05875,28.2325 -37.13375,15.06875 -80.97625,26.20125 -114.83375,33.46625" /><path
     inkscape:connector-curvature="0"
     id="path246"
     style="fill:#000000;fill-opacity:1;fill-rule:nonzero;stroke:#000000;stroke-width:1.25;stroke-linecap:butt;stroke-linejoin:round;stroke-miterlimit:10;stroke-dasharray:none;stroke-opacity:1"
     d="m 427.80081,286.7668 c 0,6.665 -10,6.665 -10,0 0,-6.665 10,-6.665 10,0" /><text
     id="text248"
     style="font-variant:normal;font-size:10.00030518px;font-family:'Nimbus Sans L';-inkscape-font-specification:NimbusSanL-Regu;writing-mode:lr-tb;fill:#000000;fill-opacity:1;fill-rule:nonzero;stroke:none"
     x="385.6283"
     y="314.55484"><tspan
       id="tspan250"
       y="314.55484"
       x="385.6283 391.25848 396.87866 400.62878 405.31891 410.93909 416.56921 419.37933 423.12946 428.75964 434.37982 438.12988 442.82007 448.45026 454.07037 459.70056 462.51062 467.20081 472.82098 478.45117 484.07129 489.70148 495.32166 500.01178 501.89185 507.51196 512.20215 517.82239 521.57245 527.20264 532.82275 538.45294 544.07312 547.82324 552.51337 558.14355 563.76373">person (person_type_enclosure_person)</tspan></text>
<path
     inkscape:connector-curvature="0"
     id="path274"
     style="fill:none;stroke:#000000;stroke-width:1.25;stroke-linecap:butt;stroke-linejoin:round;stroke-miterlimit:10;stroke-dasharray:none;stroke-opacity:1"
     d="m 304.81726,80.101858 c 41.71386,-21.88708 73.13178,-29.82425 123.18553,-14.19425" /><text
     id="text278"
     style="font-variant:normal;font-size:10.00030518px;font-family:'Nimbus Sans L';-inkscape-font-specification:NimbusSanL-Regu;writing-mode:lr-tb;fill:#000000;fill-opacity:1;fill-rule:nonzero;stroke:none"
     x="278.54126"
     y="41.370594"><tspan
       id="tspan280"
       y="41.370594"
       x="278.54126 283.23145 285.10147 290.73166 296.35178 301.98196 303.85202 309.48221 315.10239 317.92245 321.67261 326.35269 328.23282 333.86292 339.48312 345.11331 346.98334 352.61353 358.23373 363.86383 369.48398 375.11417 378.86426 383.54443 389.17462 394.80481 400.42493 405.11505 406.98511 412.6153 418.23547 423.8656 425.73572 431.36584 436.99603">cleaning (cleaning_person_cleaning)</tspan></text>
<path
     inkscape:connector-curvature="0"
     id="path282"
     style="fill:none;stroke:#000000;stroke-width:1.25;stroke-linecap:butt;stroke-linejoin:round;stroke-miterlimit:10;stroke-dasharray:none;stroke-opacity:1"
     d="M 154.87465,70.845588 C 45.763092,93.293088 -68.014223,227.26771 51.878312,317.8068 c 26.065,16.42125 58.729998,27.05625 86.083748,33.73" /><g
     id="g8724"
     transform="matrix(1.25,0,0,-1.25,-85.120434,541.04925)"><path
       inkscape:connector-curvature="0"
       d="m 202.71812,385.61409 100,0 0,-24 -100,0 0,24 z"
       style="fill:#eee8aa;fill-opacity:1;fill-rule:nonzero;stroke:none"
       id="path256" /><path
       inkscape:connector-curvature="0"
       d="m 202.71812,385.61409 100,0 0,-24 -100,0 0,24 z"
       style="fill:#a965d1;fill-opacity:1;fill-rule:nonzero;stroke:none"
       id="path258" /><text
       y="-376.21567"
       x="234.72255"
       transform="scale(1,-1)"
       style="font-variant:normal;font-weight:bold;font-size:8.00024414px;font-family:'Nimbus Sans L';-inkscape-font-specification:NimbusSanL-Bold;writing-mode:lr-tb;fill:#ffffff;fill-opacity:1;fill-rule:nonzero;stroke:none"
       id="text260"><tspan
         x="234.72255 240.72273 242.97078 247.46693 251.97105 257.21921 259.46729 264.72345 269.97159 275.21976 279.72391 282.724 287.22012 292.47629"
         y="-376.21567"
         id="tspan262">CleaningPerson</tspan><tspan
         x="220.71812"
         y="-368.21567"
         id="tspan264">&lt;</tspan></text>
<text
       y="-368.21567"
       x="225.71828"
       transform="scale(1,-1)"
       style="font-variant:normal;font-size:8.00024414px;font-family:'Nimbus Sans L';-inkscape-font-specification:NimbusSanL-ReguItal;writing-mode:lr-tb;fill:#ffffff;fill-opacity:1;fill-rule:nonzero;stroke:none"
       id="text266"><tspan
         x="225.71828 230.96645 235.47057 239.22267 243.71883 250.47102 254.96718 259.47128 263.96744"
         y="-368.21567"
         id="tspan268">BaseModel</tspan></text>
<text
       y="-368.21567"
       x="265.71948"
       transform="scale(1,-1)"
       style="font-variant:normal;font-weight:bold;font-size:8.00024414px;font-family:'Nimbus Sans L';-inkscape-font-specification:NimbusSanL-Bold;writing-mode:lr-tb;fill:#ffffff;fill-opacity:1;fill-rule:nonzero;stroke:none"
       id="text270"><tspan
         x="265.71948 270.2236"
         y="-368.21567"
         id="tspan272">&gt; </tspan></text>
</g><path
     inkscape:connector-curvature="0"
     id="path276"
     style="fill:#000000;fill-opacity:1;fill-rule:nonzero;stroke:#000000;stroke-width:1.25;stroke-linecap:butt;stroke-linejoin:round;stroke-miterlimit:10;stroke-dasharray:none;stroke-opacity:1"
     d="m 309.52846,82.355558 c 0,6.665 -10,6.665 -10,0 0,-6.67 10,-6.67 10,0" /><path
     inkscape:connector-curvature="0"
     id="path284"
     style="fill:#000000;fill-opacity:1;fill-rule:nonzero;stroke:#000000;stroke-width:1.25;stroke-linecap:butt;stroke-linejoin:round;stroke-miterlimit:10;stroke-dasharray:none;stroke-opacity:1"
     d="m 159.07471,72.119318 c 0,6.665 -10,6.665 -10,0 0,-6.67 10,-6.67 10,0" /><text
     id="text286"
     style="font-variant:normal;font-size:10.00030518px;font-family:'Nimbus Sans L';-inkscape-font-specification:NimbusSanL-Regu;writing-mode:lr-tb;fill:#000000;fill-opacity:1;fill-rule:nonzero;stroke:none"
     x="16.878315"
     y="213.30482"><tspan
       id="tspan288"
       y="213.30482"
       x="16.878315 22.508472 28.128651 31.878773 36.568897 42.189075 47.819233 50.629322 54.379459 59.069599 60.939655 66.569817 72.18998 77.820152 79.700233 85.320396 90.950584 96.570732 102.20092 107.82107 111.57119 116.26134 121.88152 127.51168 133.14186 138.76201 144.3922 148.14232 152.82243 158.45262 164.0728">person (cleaning_person_person)</tspan></text>
<path
     inkscape:connector-curvature="0"
     id="path290"
     style="fill:#eee8aa;fill-opacity:1;fill-rule:nonzero;stroke:none"
     d="m 41.878312,246.5568 117.499998,0 0,30 -117.499998,0 0,-30 z" /><path
     inkscape:connector-curvature="0"
     id="path292"
     style="fill:#a965d1;fill-opacity:1;fill-rule:nonzero;stroke:none"
     d="m 41.878312,246.5568 117.499998,0 0,30 -117.499998,0 0,-30 z" /><text
     id="text294"
     style="font-variant:normal;font-weight:bold;font-size:10.00030518px;font-family:'Nimbus Sans L';-inkscape-font-specification:NimbusSanL-Bold;writing-mode:lr-tb;fill:#ffffff;fill-opacity:1;fill-rule:nonzero;stroke:none"
     x="97.508812"
     y="258.30484"><tspan
       id="tspan296"
       y="258.30484"
       x="97.508812 104.06902 109.6892 115.31936 121.87957 124.68966 131.25984">Feeding</tspan><tspan
       id="tspan298"
       y="268.30484"
       x="47.503315">&lt;</tspan></text>
<text
     id="text300"
     style="font-variant:normal;font-size:10.00030518px;font-family:'Nimbus Sans L';-inkscape-font-specification:NimbusSanL-ReguItal;writing-mode:lr-tb;fill:#ffffff;fill-opacity:1;fill-rule:nonzero;stroke:none"
     x="53.753498"
     y="268.30484"><tspan
       id="tspan302"
       y="268.30484"
       x="53.753498 60.313679 65.943871 70.634026 76.254189 82.814384 87.504539 93.134697 98.754875 101.56496 110.00521 115.6354 121.25558 126.88573">BaseEventModel</tspan></text>
<text
     id="text304"
     style="font-variant:normal;font-weight:bold;font-size:10.00030518px;font-family:'Nimbus Sans L';-inkscape-font-specification:NimbusSanL-Bold;writing-mode:lr-tb;fill:#ffffff;fill-opacity:1;fill-rule:nonzero;stroke:none"
     x="130.00581"
     y="268.30484"><tspan
       id="tspan306"
       y="268.30484"
       x="130.00581 135.636">&gt; </tspan></text>
<path
     inkscape:connector-curvature="0"
     id="path308"
     style="fill:none;stroke:#000000;stroke-width:1.25;stroke-linecap:butt;stroke-linejoin:round;stroke-miterlimit:10;stroke-dasharray:none;stroke-opacity:1"
     d="m 62.864562,291.5618 c -6.65,8.4175 -9.7075,17.66125 -3.48625,26.245 17.925,24.72625 50.234998,35.7325 78.608748,40.5275" /><path
     inkscape:connector-curvature="0"
     id="path310"
     style="fill:#000000;fill-opacity:1;fill-rule:nonzero;stroke:#000000;stroke-width:1.25;stroke-linecap:butt;stroke-linejoin:round;stroke-miterlimit:10;stroke-dasharray:none;stroke-opacity:1"
     d="m 71.409562,287.76305 c 0,6.665 -10,6.665 -10,0 0,-6.67 10,-6.67 10,0" /><text
     id="text312"
     style="font-variant:normal;font-size:10.00030518px;font-family:'Nimbus Sans L';-inkscape-font-specification:NimbusSanL-Regu;writing-mode:lr-tb;fill:#000000;fill-opacity:1;fill-rule:nonzero;stroke:none"
     x="59.378315"
     y="314.55484"><tspan
       id="tspan314"
       y="314.55484"
       x="59.378315 65.008492 69.688622 75.318794 80.008934 85.629112 88.439201 94.069359 97.819481 100.62957 104.37969 107.18978 112.81994 118.44012 124.07027 125.95034 131.57051 137.2007 142.82085 148.45103 153.13118 158.76134 163.45149 169.07164 171.88173 177.51192 181.26201">executor (feeding_executor)</tspan></text>
<path
     inkscape:connector-curvature="0"
     id="path320"
     style="fill:#eee8aa;fill-opacity:1;fill-rule:nonzero;stroke:none"
     d="m 216.87831,145.3068 120,0 0,30 -120,0 0,-30 z" /><path
     inkscape:connector-curvature="0"
     id="path322"
     style="fill:#a965d1;fill-opacity:1;fill-rule:nonzero;stroke:none"
     d="m 216.87831,145.3068 120,0 0,30 -120,0 0,-30 z" /><text
     id="text324"
     style="font-variant:normal;font-weight:bold;font-size:10.00030518px;font-family:'Nimbus Sans L';-inkscape-font-specification:NimbusSanL-Bold;writing-mode:lr-tb;fill:#ffffff;fill-opacity:1;fill-rule:nonzero;stroke:none"
     x="256.88385"
     y="157.05484"><tspan
       id="tspan326"
       y="157.05484"
       x="256.88385 263.44403 269.06424 274.69437 281.25458 284.06467 290.63489 297.19507 304.69528 311.25549 314.06558 322.50583 328.13602">FeedingAnimal</tspan><tspan
       id="tspan328"
       y="167.05482"
       x="236.87831">&lt;</tspan></text>
<text
     id="text330"
     style="font-variant:normal;font-size:10.00030518px;font-family:'Nimbus Sans L';-inkscape-font-specification:NimbusSanL-ReguItal;writing-mode:lr-tb;fill:#ffffff;fill-opacity:1;fill-rule:nonzero;stroke:none"
     x="243.12849"
     y="167.05482"><tspan
       id="tspan332"
       y="167.05482"
       x="243.12849 249.68871 255.31889 260.00906 265.62921 274.06946 279.68964 285.31979 290.93997">BaseModel</tspan></text>
<text
     id="text334"
     style="font-variant:normal;font-weight:bold;font-size:10.00030518px;font-family:'Nimbus Sans L';-inkscape-font-specification:NimbusSanL-Bold;writing-mode:lr-tb;fill:#ffffff;fill-opacity:1;fill-rule:nonzero;stroke:none"
     x="293.13004"
     y="167.05482"><tspan
       id="tspan336"
       y="167.05482"
       x="293.13004 298.76022">&gt; </tspan></text>
<path
     inkscape:connector-curvature="0"
     id="path338"
     style="fill:none;stroke:#000000;stroke-width:1.25;stroke-linecap:butt;stroke-linejoin:round;stroke-miterlimit:10;stroke-dasharray:none;stroke-opacity:1"
     d="m 322.03456,187.7818 c 20.025,10.5225 44.24375,21.7925 67.34375,28.775 72.42625,21.9 102.87785,15.40868 176.6916,32.02992" /><path
     inkscape:connector-curvature="0"
     id="path340"
     style="fill:#000000;fill-opacity:1;fill-rule:nonzero;stroke:#000000;stroke-width:1.25;stroke-linecap:butt;stroke-linejoin:round;stroke-miterlimit:10;stroke-dasharray:none;stroke-opacity:1"
     d="m 322.55706,185.38055 c 0,6.665 -10,6.665 -10,0 0,-6.67 10,-6.67 10,0" /><text
     id="text342"
     style="font-variant:normal;font-size:10.00030518px;font-family:'Nimbus Sans L';-inkscape-font-specification:NimbusSanL-Regu;writing-mode:lr-tb;fill:#000000;fill-opacity:1;fill-rule:nonzero;stroke:none"
     x="389.3783"
     y="213.30482"><tspan
       id="tspan344"
       y="213.30482"
       x="389.3783 395.00848 400.62866 402.50873 410.93896 416.56915 418.43921 421.25928 425.0094 427.81946 433.43964 439.06982 444.69 446.57007 452.20026 457.82037 463.45056 469.07074 474.70093 476.57098 485.01123 490.63141 492.51147 498.1416 503.76178 509.39197 511.26196 519.70227 525.32245 527.20251">animal (feeding_animal_animal)</tspan></text>
<path
     inkscape:connector-curvature="0"
     id="path346"
     style="fill:none;stroke:#000000;stroke-width:1.25;stroke-linecap:butt;stroke-linejoin:round;stroke-miterlimit:10;stroke-dasharray:none;stroke-opacity:1"
     d="m 223.43581,187.3093 c -11.3425,5.7325 -23.17375,11.92375 -34.0575,17.9975 -18.8325,10.5175 -39.33625,23.14 -55.88375,33.6375" /><path
     inkscape:connector-curvature="0"
     id="path348"
     style="fill:#000000;fill-opacity:1;fill-rule:nonzero;stroke:#000000;stroke-width:1.25;stroke-linecap:butt;stroke-linejoin:round;stroke-miterlimit:10;stroke-dasharray:none;stroke-opacity:1"
     d="m 232.93331,185.05305 c 0,6.67 -10,6.67 -10,0 0,-6.665 10,-6.665 10,0" /><text
     id="text350"
     style="font-variant:normal;font-size:10.00030518px;font-family:'Nimbus Sans L';-inkscape-font-specification:NimbusSanL-Regu;writing-mode:lr-tb;fill:#000000;fill-opacity:1;fill-rule:nonzero;stroke:none"
     x="189.37831"
     y="213.30482"><tspan
       id="tspan352"
       y="213.30482"
       x="189.37831 192.18837 197.81856 203.43874 209.06892 210.93895 216.56914 222.18929 225.00938 228.75951 231.5696 237.18977 242.81993 248.45012 250.32014 255.95033 261.57053 267.20071 272.82086 278.45105 280.32108 288.76132 294.38153 296.26157 301.89175 304.70184 310.32199 315.95218 321.57239 323.45242 329.07257 334.70273">feeding (feeding_animal_feeding)</tspan></text>
</svg>